<?xml version="1.0" encoding="utf-8"?>
<!-- Generator: Adobe Illustrator 23.0.3, SVG Export Plug-In . SVG Version: 6.00 Build 0)  -->
<svg version="1.1" id="Layer_1" xmlns="http://www.w3.org/2000/svg" xmlns:xlink="http://www.w3.org/1999/xlink" x="0px" y="0px"
	 viewBox="0 0 1200 1200" enable-background="new 0 0 1200 1200" xml:space="preserve">
<g>
	<g>
		<rect x="439.962" y="795.264" fill="none" width="0.103" height="19.518"/>
		<rect x="323.245" y="795.264" fill="#FC9C17" width="19.517" height="19.518"/>
		<rect x="303.728" y="795.264" fill="#FC9B16" width="19.518" height="19.518"/>
		<rect x="284.21" y="795.264" fill="#FB9211" width="19.518" height="19.518"/>
		<rect x="264.693" y="795.264" fill="#F9800A" width="19.517" height="19.518"/>
		<rect x="245.175" y="795.264" fill="#F9800A" width="19.518" height="19.518"/>
		
			<rect x="488.267" y="788.917" transform="matrix(0.9716 -0.2365 0.2365 0.9716 -173.501 137.9624)" fill="#FDB513" width="0.024" height="6.438"/>
		<rect x="342.762" y="775.747" fill="#FDB513" width="19.129" height="19.517"/>
		<rect x="323.245" y="775.747" fill="#FFD154" width="19.517" height="19.517"/>
		<rect x="303.728" y="775.747" fill="#FFCF4A" width="19.518" height="19.517"/>
		<rect x="284.21" y="775.747" fill="#FFC42C" width="19.518" height="19.517"/>
		<rect x="264.693" y="775.747" fill="#FFBF25" width="19.517" height="19.517"/>
		<rect x="245.175" y="775.747" fill="#FDA219" width="19.518" height="19.517"/>
		<rect x="225.658" y="775.747" fill="#F9800A" width="19.518" height="19.517"/>
		<polygon fill="#FDB513" points="453.102,756.229 440.35,756.229 440.35,775.747 457.854,775.747 456.483,770.117 		"/>
		<polygon fill="#FDB513" points="420.833,756.229 420.833,775.747 439.361,775.747 439.962,775.747 440.35,775.747 440.35,756.229 
					"/>
		<polygon fill="#FDB513" points="401.315,775.747 420.444,775.747 420.833,775.747 420.833,756.229 401.315,756.229 		"/>
		<polygon fill="#FDB513" points="381.798,756.229 381.798,775.747 400.926,775.747 401.315,775.747 401.315,756.229 		"/>
		<polygon fill="#FDB513" points="362.28,756.229 362.28,775.747 381.409,775.747 381.798,775.747 381.798,756.229 		"/>
		<polygon fill="#FDB513" points="342.762,756.229 342.762,775.747 361.891,775.747 362.28,775.747 362.28,756.229 		"/>
		<rect x="323.245" y="756.229" fill="#FDB513" width="19.517" height="19.518"/>
		<rect x="303.728" y="756.229" fill="#FFDD7B" width="19.518" height="19.518"/>
		<rect x="284.21" y="756.229" fill="#FFF2D0" width="19.518" height="19.518"/>
		<rect x="264.693" y="756.229" fill="#FFEBB5" width="19.517" height="19.518"/>
		<rect x="245.175" y="756.229" fill="#FFC835" width="19.518" height="19.518"/>
		<rect x="225.658" y="756.229" fill="#FEB520" width="19.518" height="19.518"/>
		<rect x="206.14" y="756.229" fill="#F9800A" width="19.518" height="19.518"/>
		<polygon fill="#FDB513" points="440.35,747.594 440.35,756.229 453.102,756.229 450.404,745.146 		"/>
		<polygon fill="#FDB513" points="425.432,751.226 421.898,736.711 420.833,736.711 420.833,756.229 440.35,756.229 440.35,747.594 
					"/>
		<rect x="401.315" y="736.711" fill="#FDB513" width="19.518" height="19.518"/>
		<rect x="381.798" y="736.711" fill="#FDB513" width="19.518" height="19.518"/>
		<rect x="362.28" y="736.711" fill="#FDB513" width="19.518" height="19.518"/>
		<rect x="342.762" y="736.711" fill="#FDB513" width="19.518" height="19.518"/>
		<rect x="323.245" y="736.711" fill="#FDB513" width="19.517" height="19.518"/>
		<rect x="303.728" y="736.711" fill="#FDB513" width="19.518" height="19.518"/>
		<rect x="284.21" y="736.711" fill="#FDB513" width="19.518" height="19.518"/>
		<rect x="264.693" y="736.711" fill="#FFD258" width="19.517" height="19.518"/>
		<rect x="245.175" y="736.711" fill="#FFF4D9" width="19.518" height="19.518"/>
		<rect x="225.658" y="736.711" fill="#FFD154" width="19.518" height="19.518"/>
		<rect x="206.14" y="736.711" fill="#FEB721" width="19.518" height="19.518"/>
		<rect x="186.622" y="736.711" fill="#F9800A" width="19.518" height="19.518"/>
		<polygon fill="#FDB513" points="420.833,736.711 421.898,736.711 420.833,732.334 		"/>
		<polygon fill="#FDB513" points="419.352,726.254 417.146,717.194 401.315,717.194 401.315,736.711 420.833,736.711 
			420.833,732.334 		"/>
		<rect x="381.798" y="717.194" fill="#FDB513" width="19.518" height="19.517"/>
		<rect x="362.28" y="717.194" fill="#FDB513" width="19.518" height="19.517"/>
		<rect x="342.762" y="717.194" fill="#FDB513" width="19.518" height="19.517"/>
		<rect x="323.245" y="717.194" fill="#FDB513" width="19.517" height="19.517"/>
		<rect x="303.728" y="717.194" fill="#FDB513" width="19.518" height="19.517"/>
		<rect x="284.21" y="717.194" fill="#FDB513" width="19.518" height="19.517"/>
		<rect x="264.693" y="717.194" fill="#FDB513" width="19.517" height="19.517"/>
		<rect x="245.175" y="717.194" fill="#FFC631" width="19.518" height="19.517"/>
		<rect x="225.658" y="717.194" fill="#FFEAB2" width="19.518" height="19.517"/>
		<rect x="206.14" y="717.194" fill="#FDB513" width="19.518" height="19.517"/>
		<rect x="186.622" y="717.194" fill="#FEB621" width="19.518" height="19.517"/>
		<rect x="167.105" y="717.194" fill="#F9800A" width="19.518" height="19.517"/>
		<polygon fill="#FDB513" points="412.395,697.677 401.315,697.677 401.315,717.194 417.146,717.194 413.274,701.287 		"/>
		<rect x="381.798" y="697.677" fill="#FDB513" width="19.518" height="19.518"/>
		<rect x="362.28" y="697.677" fill="#FDB513" width="19.518" height="19.518"/>
		<rect x="342.762" y="697.677" fill="#FDB513" width="19.518" height="19.518"/>
		<rect x="323.245" y="697.677" fill="#FDB513" width="19.517" height="19.518"/>
		<rect x="303.728" y="697.677" fill="#FDB513" width="19.518" height="19.518"/>
		<rect x="284.21" y="697.677" fill="#FDB513" width="19.518" height="19.518"/>
		<rect x="264.693" y="697.677" fill="#FDB513" width="19.517" height="19.518"/>
		<rect x="245.175" y="697.677" fill="#FDB513" width="19.518" height="19.518"/>
		<rect x="225.658" y="697.677" fill="#FDB513" width="19.518" height="19.518"/>
		<rect x="206.14" y="697.677" fill="#FFD154" width="19.518" height="19.518"/>
		<rect x="186.622" y="697.677" fill="#FFCD45" width="19.518" height="19.518"/>
		<rect x="167.105" y="697.677" fill="#FEB721" width="19.518" height="19.518"/>
		<rect x="147.588" y="697.677" fill="#F9800A" width="19.517" height="19.518"/>
		<rect x="128.07" y="697.677" fill="#C85813" width="19.518" height="19.518"/>
		<polygon fill="#FDB513" points="401.315,678.159 401.315,697.677 412.395,697.677 407.643,678.159 		"/>
		<rect x="381.798" y="678.159" fill="#FDB513" width="19.518" height="19.517"/>
		<rect x="362.28" y="678.159" fill="#FDB513" width="19.518" height="19.517"/>
		<rect x="342.762" y="678.159" fill="#FDB513" width="19.518" height="19.517"/>
		<rect x="323.245" y="678.159" fill="#FDB513" width="19.517" height="19.517"/>
		<rect x="303.728" y="678.159" fill="#FDB513" width="19.518" height="19.517"/>
		<rect x="284.21" y="678.159" fill="#FDB513" width="19.518" height="19.517"/>
		<rect x="264.693" y="678.159" fill="#FDB513" width="19.517" height="19.517"/>
		<rect x="245.175" y="678.159" fill="#FDB513" width="19.518" height="19.517"/>
		<rect x="225.658" y="678.159" fill="#FDB513" width="19.518" height="19.517"/>
		<rect x="206.14" y="678.159" fill="#FFC93A" width="19.518" height="19.517"/>
		<rect x="186.622" y="678.159" fill="#FFF0CA" width="19.518" height="19.517"/>
		<rect x="167.105" y="678.159" fill="#FFC329" width="19.518" height="19.517"/>
		<rect x="147.588" y="678.159" fill="#FFBE25" width="19.517" height="19.517"/>
		<rect x="128.07" y="678.159" fill="#FB9010" width="19.518" height="19.517"/>
		<rect x="108.553" y="678.159" fill="#F77707" width="19.517" height="19.517"/>
		<rect x="89.035" y="678.159" fill="#D85D0D" width="19.518" height="19.517"/>
		<rect x="69.518" y="678.159" fill="#C85813" width="19.518" height="19.517"/>
		<polygon fill="#FDB513" points="401.315,658.642 401.315,678.159 407.643,678.159 407.194,676.315 402.891,658.642 		"/>
		<rect x="381.798" y="658.642" fill="#FDB513" width="19.518" height="19.518"/>
		<rect x="362.28" y="658.642" fill="#FDB513" width="19.518" height="19.518"/>
		<rect x="342.762" y="658.642" fill="#FDB513" width="19.518" height="19.518"/>
		<rect x="323.245" y="658.642" fill="#FDB513" width="19.517" height="19.518"/>
		<rect x="303.728" y="658.642" fill="#FDB513" width="19.518" height="19.518"/>
		<rect x="284.21" y="658.642" fill="#FDB513" width="19.518" height="19.518"/>
		<rect x="264.693" y="658.642" fill="#FDB513" width="19.517" height="19.518"/>
		<rect x="245.175" y="658.642" fill="#FDB513" width="19.518" height="19.518"/>
		<rect x="225.658" y="658.642" fill="#FDB513" width="19.518" height="19.518"/>
		<rect x="206.14" y="658.642" fill="#FDB513" width="19.518" height="19.518"/>
		<rect x="186.622" y="658.642" fill="#FDB513" width="19.518" height="19.518"/>
		<rect x="167.105" y="658.642" fill="#FDB513" width="19.518" height="19.518"/>
		<rect x="147.588" y="658.642" fill="#FDB513" width="19.517" height="19.518"/>
		<rect x="128.07" y="658.642" fill="#FEB21F" width="19.518" height="19.518"/>
		<rect x="108.553" y="658.642" fill="#F9800A" width="19.517" height="19.518"/>
		<rect x="89.035" y="658.642" fill="#C85813" width="19.518" height="19.518"/>
		<polygon fill="#FDB513" points="401.315,652.169 401.315,658.642 402.891,658.642 		"/>
		<polygon fill="#FDB513" points="401.315,658.642 401.315,652.169 401.115,651.349 398.139,639.124 381.798,639.124 
			381.798,658.642 		"/>
		<rect x="362.28" y="639.124" fill="#FDB513" width="19.518" height="19.517"/>
		<rect x="342.762" y="639.124" fill="#FDB513" width="19.518" height="19.517"/>
		<rect x="323.245" y="639.124" fill="#FDB513" width="19.517" height="19.517"/>
		<rect x="303.728" y="639.124" fill="#FC9B19" width="19.518" height="19.517"/>
		<rect x="284.21" y="639.124" fill="#FC9F18" width="19.518" height="19.517"/>
		<rect x="264.693" y="639.124" fill="#FEAE1F" width="19.517" height="19.517"/>
		<rect x="245.175" y="639.124" fill="#FFBE25" width="19.518" height="19.517"/>
		<rect x="225.658" y="639.124" fill="#FDB513" width="19.518" height="19.517"/>
		<rect x="206.14" y="639.124" fill="#FDB513" width="19.518" height="19.517"/>
		<rect x="186.622" y="639.124" fill="#FEB622" width="19.518" height="19.517"/>
		<rect x="167.105" y="639.124" fill="#FDA71B" width="19.518" height="19.517"/>
		<rect x="147.588" y="639.124" fill="#FB9010" width="19.517" height="19.517"/>
		<rect x="128.07" y="639.124" fill="#EE6C07" width="19.518" height="19.517"/>
		<polygon fill="#FDB513" points="398.139,639.124 395.036,626.377 393.387,619.607 381.798,619.607 381.798,639.124 		"/>
		<rect x="362.28" y="619.607" fill="#FDB513" width="19.518" height="19.518"/>
		<rect x="342.762" y="619.607" fill="#FDB513" width="19.518" height="19.518"/>
		<rect x="323.245" y="619.607" fill="#FDB513" width="19.517" height="19.518"/>
		<rect x="303.728" y="619.607" fill="#FC9513" width="19.518" height="19.518"/>
		<rect x="284.21" y="619.607" fill="#F9800A" width="19.518" height="19.518"/>
		<rect x="264.693" y="619.607" fill="#F9800A" width="19.517" height="19.518"/>
		<rect x="245.175" y="619.607" fill="#F9800A" width="19.518" height="19.518"/>
		<rect x="225.658" y="619.607" fill="#F9800A" width="19.518" height="19.518"/>
		<rect x="206.14" y="619.607" fill="#F97F0A" width="19.518" height="19.518"/>
		<rect x="186.622" y="619.607" fill="#F16D06" width="19.518" height="19.518"/>
		<rect x="167.105" y="619.607" fill="#C85813" width="19.518" height="19.518"/>
		<polygon fill="#FDB513" points="393.387,619.607 388.957,601.41 388.635,600.089 381.798,600.089 381.798,619.607 		"/>
		<rect x="362.28" y="600.089" fill="#FDB513" width="19.518" height="19.517"/>
		<rect x="342.762" y="600.089" fill="#FDB513" width="19.518" height="19.517"/>
		<rect x="323.245" y="600.089" fill="#FDB513" width="19.517" height="19.517"/>
		<rect x="303.728" y="600.089" fill="#FDAB1C" width="19.518" height="19.517"/>
		<rect x="284.21" y="600.089" fill="#F9800A" width="19.518" height="19.517"/>
		<polygon fill="#FDB513" points="383.884,580.572 381.798,580.572 381.798,600.089 388.635,600.089 		"/>
		<rect x="362.28" y="580.572" fill="#FDB513" width="19.518" height="19.518"/>
		<rect x="342.762" y="580.572" fill="#FDB513" width="19.518" height="19.518"/>
		<rect x="323.245" y="580.572" fill="#FDB513" width="19.517" height="19.518"/>
		<rect x="303.728" y="580.572" fill="#FDB513" width="19.518" height="19.518"/>
		<rect x="284.21" y="580.572" fill="#FC9715" width="19.518" height="19.518"/>
		<rect x="264.693" y="580.572" fill="#F9800A" width="19.517" height="19.518"/>
		<rect x="1091.448" y="563.01" fill="#FFFFFF" width="19.518" height="19.517"/>
		<rect x="1071.93" y="563.01" fill="#F1F2F9" width="19.518" height="19.517"/>
		<rect x="1052.413" y="563.01" fill="#F1F2F9" width="19.518" height="19.517"/>
		<rect x="1032.895" y="563.01" fill="#F1F2F9" width="19.518" height="19.517"/>
		<rect x="1013.378" y="563.01" fill="#F1F2F9" width="19.518" height="19.517"/>
		<rect x="993.86" y="563.01" fill="#F1F2F9" width="19.518" height="19.517"/>
		<rect x="974.343" y="563.01" fill="#F1F2F9" width="19.517" height="19.517"/>
		<rect x="954.825" y="563.01" fill="#F1F2F9" width="19.518" height="19.517"/>
		<polygon fill="#F1F2F9" points="935.308,563.01 935.308,564.062 937.636,573.623 939.804,582.528 954.825,582.528 954.825,563.01 
					"/>
		<polygon fill="#F1F2F9" points="935.308,564.062 935.308,563.01 935.052,563.01 		"/>
		<polygon fill="#FDB513" points="405.584,561.054 401.315,561.054 401.315,571.949 407.849,570.359 		"/>
		<polygon fill="#FDB513" points="382.877,576.438 401.315,571.949 401.315,561.054 381.798,561.054 381.798,580.572 
			383.884,580.572 		"/>
		<rect x="362.28" y="561.054" fill="#FDB513" width="19.518" height="19.517"/>
		<rect x="342.762" y="561.054" fill="#FFBB24" width="19.518" height="19.517"/>
		<rect x="323.245" y="561.054" fill="#FDB513" width="19.517" height="19.517"/>
		<rect x="303.728" y="561.054" fill="#FDB513" width="19.518" height="19.517"/>
		<rect x="284.21" y="561.054" fill="#FFC026" width="19.518" height="19.517"/>
		<rect x="264.693" y="561.054" fill="#FDAA1D" width="19.517" height="19.517"/>
		<rect x="245.175" y="561.054" fill="#FB8D10" width="19.518" height="19.517"/>
		<rect x="225.658" y="561.054" fill="#F76D00" width="19.518" height="19.517"/>
		<rect x="206.14" y="561.054" fill="#F76D00" width="19.518" height="19.517"/>
		<rect x="186.622" y="561.054" fill="#C85813" width="19.518" height="19.517"/>
		<rect x="1110.965" y="543.493" fill="#FDFDFE" width="19.518" height="19.518"/>
		<rect x="1091.448" y="543.493" fill="#FFFFFF" width="19.518" height="19.518"/>
		<rect x="1071.93" y="543.493" fill="#F1F2F9" width="19.518" height="19.518"/>
		<rect x="1052.413" y="543.493" fill="#F1F2F9" width="19.518" height="19.518"/>
		<rect x="1032.895" y="543.493" fill="#F1F2F9" width="19.518" height="19.518"/>
		<rect x="1013.378" y="543.493" fill="#F1F2F9" width="19.518" height="19.518"/>
		<rect x="993.86" y="543.493" fill="#F1F2F9" width="19.518" height="19.518"/>
		<rect x="974.343" y="543.493" fill="#F1F2F9" width="19.517" height="19.518"/>
		<rect x="954.825" y="543.493" fill="#F1F2F9" width="19.518" height="19.518"/>
		<rect x="935.308" y="543.493" fill="#F1F2F9" width="19.517" height="19.518"/>
		<polygon fill="#F1F2F9" points="930.3,543.493 931.556,548.652 935.052,563.01 935.308,563.01 935.308,543.493 		"/>
		<polygon fill="#FDB513" points="401.769,545.387 417.585,541.536 401.315,541.536 401.315,561.054 405.584,561.054 		"/>
		<rect x="381.798" y="541.536" fill="#FDB513" width="19.518" height="19.518"/>
		<rect x="362.28" y="541.536" fill="#FDB513" width="19.518" height="19.518"/>
		<rect x="342.762" y="541.536" fill="#F16D06" width="19.518" height="19.518"/>
		<rect x="323.245" y="541.536" fill="#FB9011" width="19.517" height="19.518"/>
		<rect x="303.728" y="541.536" fill="#FB9011" width="19.518" height="19.518"/>
		<rect x="284.21" y="541.536" fill="#FB9011" width="19.518" height="19.518"/>
		<rect x="264.693" y="541.536" fill="#FA840C" width="19.517" height="19.518"/>
		<rect x="245.175" y="541.536" fill="#F16D06" width="19.518" height="19.518"/>
		<rect x="225.658" y="541.536" fill="#C85813" width="19.518" height="19.518"/>
		<rect x="1110.965" y="523.975" fill="#FFFFFF" width="19.518" height="19.517"/>
		<rect x="1091.448" y="523.975" fill="#FFFFFF" width="19.518" height="19.517"/>
		<rect x="1071.93" y="523.975" fill="#F1F2F9" width="19.518" height="19.517"/>
		<rect x="1052.413" y="523.975" fill="#F1F2F9" width="19.518" height="19.517"/>
		<rect x="1032.895" y="523.975" fill="#F1F2F9" width="19.518" height="19.517"/>
		<rect x="1013.378" y="523.975" fill="#F1F2F9" width="19.518" height="19.517"/>
		<rect x="993.86" y="523.975" fill="#F1F2F9" width="19.518" height="19.517"/>
		<rect x="974.343" y="523.975" fill="#F1F2F9" width="19.517" height="19.517"/>
		<rect x="954.825" y="523.975" fill="#F1F2F9" width="19.518" height="19.517"/>
		<rect x="935.308" y="523.975" fill="#F1F2F9" width="19.517" height="19.517"/>
		<polygon fill="#F1F2F9" points="925.548,523.975 930.3,543.493 935.308,543.493 935.308,523.975 		"/>
		<polygon fill="#FDB513" points="422.527,522.019 420.833,522.019 420.833,540.746 426.736,539.308 		"/>
		<polygon fill="#FDB513" points="420.833,540.746 420.833,522.019 401.315,522.019 401.315,541.536 417.585,541.536 		"/>
		<rect x="381.798" y="522.019" fill="#FDB513" width="19.518" height="19.518"/>
		<rect x="362.28" y="522.019" fill="#FDB513" width="19.518" height="19.518"/>
		<rect x="342.762" y="522.019" fill="#F16D06" width="19.518" height="19.518"/>
		<rect x="1110.965" y="504.458" fill="#FFFFFF" width="19.518" height="19.518"/>
		<rect x="1091.448" y="504.458" fill="#F7F8FB" width="19.518" height="19.518"/>
		<rect x="1071.93" y="504.458" fill="#F1F2F9" width="19.518" height="19.518"/>
		<rect x="1052.413" y="504.458" fill="#F1F2F9" width="19.518" height="19.518"/>
		<rect x="1032.895" y="504.458" fill="#F1F2F9" width="19.518" height="19.518"/>
		<rect x="1013.378" y="504.458" fill="#F1F2F9" width="19.518" height="19.518"/>
		<rect x="993.86" y="504.458" fill="#F1F2F9" width="19.518" height="19.518"/>
		<rect x="974.343" y="504.458" fill="#F1F2F9" width="19.517" height="19.518"/>
		<rect x="954.825" y="504.458" fill="#F1F2F9" width="19.518" height="19.518"/>
		<rect x="935.308" y="504.458" fill="#F1F2F9" width="19.517" height="19.518"/>
		<polygon fill="#F1F2F9" points="920.796,504.458 925.477,523.685 925.548,523.975 935.308,523.975 935.308,504.458 		"/>
		<polygon fill="#FDB513" points="420.833,515.059 420.833,522.019 422.527,522.019 		"/>
		<polygon fill="#FDB513" points="420.833,515.059 420.658,514.341 417.775,502.502 401.315,502.502 401.315,522.019 
			420.833,522.019 		"/>
		<rect x="381.798" y="502.502" fill="#FDB513" width="19.518" height="19.517"/>
		<rect x="362.28" y="502.502" fill="#FDB513" width="19.518" height="19.517"/>
		<rect x="342.762" y="502.502" fill="#FB9011" width="19.518" height="19.517"/>
		<rect x="323.245" y="502.502" fill="#F16D06" width="19.517" height="19.517"/>
		<rect x="1110.965" y="484.94" fill="#FAFAFB" width="19.518" height="19.518"/>
		<rect x="1091.448" y="484.94" fill="#FEFFFF" width="19.518" height="19.518"/>
		<rect x="1071.93" y="484.94" fill="#F6F7FB" width="19.518" height="19.518"/>
		<rect x="1052.413" y="484.94" fill="#F1F2F9" width="19.518" height="19.518"/>
		<rect x="1032.895" y="484.94" fill="#F1F2F9" width="19.518" height="19.518"/>
		<rect x="1013.378" y="484.94" fill="#F1F2F9" width="19.518" height="19.518"/>
		<rect x="993.86" y="484.94" fill="#F1F2F9" width="19.518" height="19.518"/>
		<rect x="974.343" y="484.94" fill="#F1F2F9" width="19.517" height="19.518"/>
		<rect x="954.825" y="484.94" fill="#F1F2F9" width="19.518" height="19.518"/>
		<rect x="935.308" y="484.94" fill="#F1F2F9" width="19.517" height="19.518"/>
		<polygon fill="#F1F2F9" points="919.398,498.713 920.796,504.458 935.308,504.458 935.308,484.94 916.044,484.94 		"/>
		<polygon fill="#FDB513" points="439.55,483.29 439.475,482.984 420.833,482.984 420.833,487.847 		"/>
		<polygon fill="#FDB513" points="414.578,489.37 420.833,487.847 420.833,482.984 401.315,482.984 401.315,502.502 
			417.775,502.502 		"/>
		<rect x="381.798" y="482.984" fill="#FDB513" width="19.518" height="19.518"/>
		<rect x="362.28" y="482.984" fill="#FDB513" width="19.518" height="19.518"/>
		<rect x="342.762" y="482.984" fill="#FFC126" width="19.518" height="19.518"/>
		<rect x="323.245" y="482.984" fill="#FB9412" width="19.517" height="19.518"/>
		<rect x="303.728" y="482.984" fill="#F16D06" width="19.518" height="19.518"/>
		<rect x="1091.448" y="465.423" fill="#F4F5F7" width="19.518" height="19.517"/>
		<rect x="1071.93" y="465.423" fill="#FFFFFF" width="19.518" height="19.517"/>
		<rect x="1052.413" y="465.423" fill="#FDFDFE" width="19.518" height="19.517"/>
		<rect x="1032.895" y="465.423" fill="#FBFCFD" width="19.518" height="19.517"/>
		<rect x="1013.378" y="465.423" fill="#F2F3F9" width="19.518" height="19.517"/>
		<rect x="993.86" y="465.423" fill="#F1F2F9" width="19.518" height="19.517"/>
		<rect x="974.343" y="465.423" fill="#F1F2F9" width="19.517" height="19.517"/>
		<rect x="954.825" y="465.423" fill="#F1F2F9" width="19.518" height="19.517"/>
		<rect x="935.308" y="465.423" fill="#F1F2F9" width="19.517" height="19.517"/>
		<polygon fill="#F1F2F9" points="915.79,483.896 916.044,484.94 935.308,484.94 935.308,465.423 915.79,465.423 		"/>
		<polygon fill="#F1F2F9" points="915.79,465.423 911.293,465.423 913.319,473.746 915.79,483.896 		"/>
		<polygon fill="#FDB513" points="439.475,482.984 434.723,463.467 420.833,463.467 420.833,482.984 		"/>
		<rect x="401.315" y="463.467" fill="#FDB513" width="19.518" height="19.517"/>
		<rect x="381.798" y="463.467" fill="#FDB513" width="19.518" height="19.517"/>
		<rect x="362.28" y="463.467" fill="#FDB513" width="19.518" height="19.517"/>
		<rect x="342.762" y="463.467" fill="#FDB513" width="19.518" height="19.517"/>
		<rect x="323.245" y="463.467" fill="#FFBF25" width="19.517" height="19.517"/>
		<rect x="303.728" y="463.467" fill="#FA840B" width="19.518" height="19.517"/>
		<rect x="1032.895" y="445.905" fill="#FFFFFF" width="19.518" height="19.518"/>
		<rect x="1013.378" y="445.905" fill="#FDFDFE" width="19.518" height="19.518"/>
		<rect x="993.86" y="445.905" fill="#F8F9FC" width="19.518" height="19.518"/>
		<rect x="974.343" y="445.905" fill="#F4F4FA" width="19.517" height="19.518"/>
		<rect x="954.825" y="445.905" fill="#F1F2F9" width="19.518" height="19.518"/>
		<rect x="935.308" y="445.905" fill="#F1F2F9" width="19.517" height="19.518"/>
		<rect x="915.79" y="445.905" fill="#F1F2F9" width="19.518" height="19.518"/>
		<polygon fill="#F1F2F9" points="915.79,445.905 896.273,445.905 896.273,451.444 907.239,448.774 911.293,465.423 915.79,465.423 
					"/>
		<polygon fill="#F1F2F9" points="896.273,445.905 880.089,445.905 882.268,454.854 896.273,451.444 		"/>
		<polygon fill="#FDB513" points="458.438,452.245 456.418,443.949 440.35,443.949 440.35,456.648 		"/>
		<polygon fill="#FDB513" points="434.723,463.467 433.471,458.323 440.35,456.648 440.35,443.949 420.833,443.949 420.833,463.467 
					"/>
		<rect x="401.315" y="443.949" fill="#FDB513" width="19.518" height="19.518"/>
		<rect x="381.798" y="443.949" fill="#FDB513" width="19.518" height="19.518"/>
		<rect x="362.28" y="443.949" fill="#FDB513" width="19.518" height="19.518"/>
		<rect x="342.762" y="443.949" fill="#FDB513" width="19.518" height="19.518"/>
		<rect x="323.245" y="443.949" fill="#FDB513" width="19.517" height="19.518"/>
		<rect x="303.728" y="443.949" fill="#FDAC1D" width="19.518" height="19.518"/>
		<rect x="284.21" y="443.949" fill="#F16D06" width="19.518" height="19.518"/>
		<rect x="993.86" y="426.388" fill="#FDFDFD" width="19.518" height="19.517"/>
		<rect x="974.343" y="426.388" fill="#FDFDFE" width="19.517" height="19.517"/>
		<rect x="954.825" y="426.388" fill="#F1F2F9" width="19.518" height="19.517"/>
		<rect x="935.308" y="426.388" fill="#F1F2F9" width="19.517" height="19.517"/>
		<rect x="915.79" y="426.388" fill="#F1F2F9" width="19.518" height="19.517"/>
		<rect x="896.273" y="426.388" fill="#F1F2F9" width="19.518" height="19.517"/>
		<polygon fill="#F1F2F9" points="896.273,426.388 876.755,426.388 876.755,432.212 880.089,445.905 896.273,445.905 		"/>
		<polygon fill="#E5E8F1" points="876.188,429.883 876.755,432.212 876.755,426.388 857.238,426.388 857.238,434.496 		"/>
		<polygon fill="#FDB513" points="464.029,424.432 459.868,424.432 459.868,425.445 		"/>
		<polygon fill="#FDB513" points="452.358,427.273 459.868,425.445 459.868,424.432 440.35,424.432 440.35,443.949 456.418,443.949 
					"/>
		<rect x="420.833" y="424.432" fill="#FDB513" width="19.518" height="19.517"/>
		<rect x="401.315" y="424.432" fill="#FDB513" width="19.518" height="19.517"/>
		<rect x="381.798" y="424.432" fill="#FDB513" width="19.518" height="19.517"/>
		<rect x="362.28" y="424.432" fill="#FDB513" width="19.518" height="19.517"/>
		<rect x="342.762" y="424.432" fill="#FEB622" width="19.518" height="19.517"/>
		<rect x="323.245" y="424.432" fill="#FDA81C" width="19.517" height="19.517"/>
		<rect x="303.728" y="424.432" fill="#FDA219" width="19.518" height="19.517"/>
		<rect x="284.21" y="424.432" fill="#F16D06" width="19.518" height="19.517"/>
		<rect x="974.343" y="406.87" fill="#FFFFFF" width="19.517" height="19.518"/>
		<rect x="954.825" y="406.87" fill="#FBFCFD" width="19.518" height="19.518"/>
		<rect x="935.308" y="406.87" fill="#F1F2F9" width="19.517" height="19.518"/>
		<rect x="915.79" y="406.87" fill="#F1F2F9" width="19.518" height="19.518"/>
		<rect x="896.273" y="406.87" fill="#E5E8F1" width="19.518" height="19.518"/>
		<rect x="876.755" y="406.87" fill="#E5E8F1" width="19.518" height="19.518"/>
		<rect x="857.238" y="406.87" fill="#BFC5D6" width="19.518" height="19.518"/>
		<polygon fill="#FDB513" points="477.33,421.193 473.366,404.914 459.868,404.914 459.868,424.432 464.029,424.432 		"/>
		<rect x="440.35" y="404.914" fill="#FDB513" width="19.517" height="19.518"/>
		<rect x="420.833" y="404.914" fill="#F5B429" width="19.518" height="19.518"/>
		<rect x="401.315" y="404.914" fill="#FDB513" width="19.518" height="19.518"/>
		<rect x="381.798" y="404.914" fill="#FEAE1E" width="19.518" height="19.518"/>
		<rect x="362.28" y="404.914" fill="#FB8F10" width="19.518" height="19.518"/>
		<rect x="342.762" y="404.914" fill="#F16D06" width="19.518" height="19.518"/>
		<rect x="323.245" y="404.914" fill="#E56309" width="19.517" height="19.518"/>
		<rect x="303.728" y="404.914" fill="#C85813" width="19.518" height="19.518"/>
		<rect x="284.21" y="404.914" fill="#C85813" width="19.518" height="19.518"/>
		<rect x="954.825" y="387.353" fill="#FFFFFF" width="19.518" height="19.517"/>
		<rect x="935.308" y="387.353" fill="#FEFEFE" width="19.517" height="19.517"/>
		<rect x="915.79" y="387.353" fill="#F9F9FD" width="19.518" height="19.517"/>
		<rect x="896.273" y="387.353" fill="#BFC5D6" width="19.518" height="19.517"/>
		<rect x="876.755" y="387.353" fill="#CFD4DF" width="19.518" height="19.517"/>
		<polygon fill="#FDB513" points="515.733,385.397 498.903,385.397 498.903,389.494 		"/>
		<polygon fill="#FDB513" points="496.218,390.148 498.903,389.494 498.903,385.397 479.385,385.397 479.385,394.246 		"/>
		<polygon fill="#FDB513" points="473.366,404.914 471.251,396.226 479.385,394.246 479.385,385.397 459.868,385.397 
			459.868,404.914 		"/>
		<rect x="440.35" y="385.397" fill="#EEA026" width="19.517" height="19.517"/>
		<rect x="420.833" y="385.397" fill="#FDAD1E" width="19.518" height="19.517"/>
		<rect x="401.315" y="385.397" fill="#FB9412" width="19.518" height="19.517"/>
		<rect x="381.798" y="385.397" fill="#E86709" width="19.518" height="19.517"/>
		<polygon fill="#FDB513" points="518.42,372.692 518.42,384.742 521.19,384.068 		"/>
		<polygon fill="#FDB513" points="515.733,385.397 518.42,384.742 518.42,372.692 516.761,365.879 498.903,365.879 498.903,385.397 
					"/>
		<rect x="479.385" y="365.879" fill="#FDB513" width="19.518" height="19.518"/>
		<rect x="459.868" y="365.879" fill="#E56309" width="19.518" height="19.518"/>
		<rect x="440.35" y="365.879" fill="#E56309" width="19.517" height="19.518"/>
		<rect x="420.833" y="365.879" fill="#D05A10" width="19.518" height="19.518"/>
		<polygon fill="#F9800A" points="400.926,795.264 400.926,814.782 401.315,814.782 420.444,814.782 420.444,795.264 		"/>
		<polygon fill="#F9800A" points="381.409,795.264 381.409,814.782 381.798,814.782 400.926,814.782 400.926,795.264 		"/>
		<rect x="362.28" y="795.264" fill="#FC9715" width="19.129" height="19.518"/>
		<polygon fill="#FDA71B" points="361.891,795.264 342.762,795.264 342.762,814.782 361.891,814.782 362.28,814.782 362.28,795.264 
					"/>
		<polygon fill="#F9800A" points="420.444,775.747 420.444,795.264 439.361,795.264 439.361,775.747 420.833,775.747 		"/>
		<polygon fill="#F9800A" points="457.854,775.747 440.35,775.747 439.962,775.747 439.361,775.747 439.361,795.264 
			439.962,795.264 440.064,795.264 459.052,795.264 459.052,780.67 		"/>
		<polygon fill="#F9800A" points="459.117,781.032 459.139,781.026 459.052,780.67 459.052,795.264 459.582,795.264 
			459.653,795.264 462.582,795.264 		"/>
		<polygon fill="#F9800A" points="401.315,775.747 400.926,775.747 400.926,795.264 420.444,795.264 420.444,775.747 		"/>
		<polygon fill="#FDA51A" points="381.798,775.747 381.409,775.747 381.409,795.264 400.926,795.264 400.926,775.747 		"/>
		<polygon fill="#FFBD25" points="362.28,775.747 361.891,775.747 361.891,795.264 362.28,795.264 381.409,795.264 381.409,775.747 
					"/>
		
			<rect x="896.451" y="607.344" transform="matrix(0.9716 -0.2365 0.2365 0.9716 -120.9004 232.6958)" fill="#FDB513" width="25.697" height="25.701"/>
		
			<rect x="890.372" y="582.378" transform="matrix(0.9716 -0.2366 0.2366 0.9716 -115.1684 230.5545)" fill="#FDB513" width="25.696" height="25.696"/>
		
			<rect x="884.292" y="557.406" transform="matrix(0.9716 -0.2366 0.2366 0.9716 -109.4333 228.4046)" fill="#FDB513" width="25.696" height="25.701"/>
		
			<rect x="878.213" y="532.439" transform="matrix(0.9716 -0.2366 0.2366 0.9716 -103.7003 226.261)" fill="#FDB513" width="25.696" height="25.696"/>
		
			<rect x="872.134" y="507.467" transform="matrix(0.9716 -0.2366 0.2366 0.9716 -97.969 224.1237)" fill="#FDB513" width="25.696" height="25.701"/>
		
			<rect x="866.055" y="482.5" transform="matrix(0.9716 -0.2366 0.2366 0.9716 -92.2347 221.9769)" fill="#FDB513" width="25.696" height="25.696"/>
		
			<rect x="883.638" y="663.367" transform="matrix(0.9716 -0.2366 0.2366 0.9716 -134.5236 231.274)" fill="#FDB513" width="25.701" height="25.696"/>
		
			<rect x="877.559" y="638.395" transform="matrix(0.9716 -0.2366 0.2366 0.9716 -128.7843 229.1152)" fill="#FDB513" width="25.701" height="25.701"/>
		
			<rect x="871.479" y="613.424" transform="matrix(0.9716 -0.2366 0.2366 0.9716 -123.0483 226.965)" fill="#FDB513" width="25.701" height="25.701"/>
		
			<rect x="865.4" y="588.457" transform="matrix(0.9716 -0.2366 0.2366 0.9716 -117.3156 224.8216)" fill="#C95B00" width="25.701" height="25.696"/>
		
			<rect x="859.321" y="563.485" transform="matrix(0.9716 -0.2366 0.2366 0.9716 -111.5826 222.6779)" fill="#C95B00" width="25.701" height="25.701"/>
		
			<rect x="853.242" y="538.518" transform="matrix(0.9716 -0.2366 0.2366 0.9716 -105.8474 220.5281)" fill="#C95B00" width="25.701" height="25.696"/>
		
			<rect x="847.162" y="513.546" transform="matrix(0.9716 -0.2365 0.2365 0.9716 -100.1104 218.3722)" fill="#C95B00" width="25.701" height="25.701"/>
		
			<rect x="841.083" y="488.58" transform="matrix(0.9716 -0.2365 0.2365 0.9716 -94.3765 216.2256)" fill="#C95B00" width="25.701" height="25.696"/>
		
			<rect x="835.004" y="463.608" transform="matrix(0.9716 -0.2366 0.2366 0.9716 -88.6459 214.0908)" fill="#FDB513" width="25.701" height="25.701"/>
		
			<rect x="828.925" y="438.636" transform="matrix(0.9716 -0.2365 0.2365 0.9716 -82.9089 211.935)" fill="#FDB513" width="25.701" height="25.701"/>
		
			<rect x="858.671" y="669.446" transform="matrix(0.9716 -0.2366 0.2366 0.9716 -136.6631 225.5236)" fill="#FDB513" width="25.696" height="25.696"/>
		
			<rect x="852.592" y="644.474" transform="matrix(0.9716 -0.2366 0.2366 0.9716 -130.9345 223.3891)" fill="#C95B00" width="25.696" height="25.701"/>
		
			<rect x="846.512" y="619.503" transform="matrix(0.9716 -0.2366 0.2366 0.9716 -125.1973 221.2363)" fill="#C95B00" width="25.697" height="25.701"/>
		
			<rect x="840.433" y="594.536" transform="matrix(0.9716 -0.2366 0.2366 0.9716 -119.4619 219.0863)" fill="#FDB513" width="25.696" height="25.696"/>
		
			<rect x="834.354" y="569.564" transform="matrix(0.9716 -0.2366 0.2366 0.9716 -113.7278 216.9396)" fill="#F3E4B6" width="25.696" height="25.701"/>
		
			<rect x="828.275" y="544.597" transform="matrix(0.9716 -0.2366 0.2366 0.9716 -107.9937 214.7929)" fill="#F3E4B6" width="25.696" height="25.696"/>
		
			<rect x="822.196" y="519.626" transform="matrix(0.9716 -0.2366 0.2366 0.9716 -102.2627 212.6551)" fill="#FDB513" width="25.696" height="25.701"/>
		
			<rect x="816.117" y="494.659" transform="matrix(0.9716 -0.2366 0.2366 0.9716 -96.5284 210.5083)" fill="#FDB513" width="25.696" height="25.696"/>
		
			<rect x="810.037" y="469.687" transform="matrix(0.9716 -0.2366 0.2366 0.9716 -90.7907 208.3499)" fill="#C95B00" width="25.696" height="25.701"/>
		
			<rect x="803.958" y="444.715" transform="matrix(0.9716 -0.2366 0.2366 0.9716 -85.0585 206.2116)" fill="#C95B00" width="25.696" height="25.701"/>
		
			<rect x="797.878" y="419.749" transform="matrix(0.9716 -0.2366 0.2366 0.9716 -79.3229 204.0591)" fill="#FDB513" width="25.696" height="25.696"/>
		
			<rect x="839.779" y="700.492" transform="matrix(0.9716 -0.2366 0.2366 0.9716 -144.5475 221.9437)" fill="#FDB513" width="25.701" height="25.701"/>
		
			<rect x="833.7" y="675.525" transform="matrix(0.9716 -0.2366 0.2366 0.9716 -138.8173 219.8053)" fill="#C95B00" width="25.701" height="25.696"/>
		
			<rect x="827.62" y="650.553" transform="matrix(0.9716 -0.2366 0.2366 0.9716 -133.0778 217.647)" fill="#FDB513" width="25.701" height="25.701"/>
		
			<rect x="821.541" y="625.582" transform="matrix(0.9716 -0.2366 0.2366 0.9716 -127.3411 215.4955)" fill="#F3E4B6" width="25.701" height="25.701"/>
		
			<rect x="815.461" y="600.615" transform="matrix(0.9716 -0.2366 0.2366 0.9716 -121.6131 213.363)" fill="#F3E4B6" width="25.701" height="25.696"/>
		
			<rect x="809.382" y="575.643" transform="matrix(0.9716 -0.2365 0.2365 0.9716 -115.8725 211.2006)" fill="#FDB513" width="25.701" height="25.701"/>
		
			<rect x="803.303" y="550.676" transform="matrix(0.9716 -0.2366 0.2366 0.9716 -110.1404 209.0588)" fill="#FDB513" width="25.701" height="25.696"/>
		
			<rect x="797.224" y="525.705" transform="matrix(0.9716 -0.2365 0.2365 0.9716 -104.4036 206.9044)" fill="#FDB513" width="25.701" height="25.701"/>
		
			<rect x="791.145" y="500.738" transform="matrix(0.9716 -0.2366 0.2366 0.9716 -98.6758 204.7756)" fill="#FDB513" width="25.701" height="25.696"/>
		
			<rect x="785.066" y="475.766" transform="matrix(0.9716 -0.2366 0.2366 0.9716 -92.9372 202.6154)" fill="#FDB513" width="25.701" height="25.701"/>
		
			<rect x="778.986" y="450.795" transform="matrix(0.9716 -0.2365 0.2365 0.9716 -87.2023 200.4671)" fill="#FDB513" width="25.701" height="25.701"/>
		
			<rect x="772.907" y="425.828" transform="matrix(0.9716 -0.2366 0.2366 0.9716 -81.4699 198.326)" fill="#C95B00" width="25.701" height="25.696"/>
		
			<rect x="766.828" y="400.856" transform="matrix(0.9716 -0.2365 0.2365 0.9716 -75.7344 196.1738)" fill="#FDB513" width="25.701" height="25.701"/>
		
			<rect x="820.891" y="731.543" transform="matrix(0.9716 -0.2366 0.2366 0.9716 -152.4261 218.352)" fill="#FDB513" width="25.696" height="25.696"/>
		
			<rect x="814.812" y="706.571" transform="matrix(0.9716 -0.2365 0.2365 0.9716 -146.6894 216.2002)" fill="#C95B00" width="25.697" height="25.701"/>
		
			<rect x="808.732" y="681.604" transform="matrix(0.9716 -0.2366 0.2366 0.9716 -140.9565 214.0556)" fill="#FDB513" width="25.696" height="25.696"/>
		
			<rect x="802.653" y="656.633" transform="matrix(0.9716 -0.2366 0.2366 0.9716 -135.2281 211.9205)" fill="#F3E4B6" width="25.696" height="25.701"/>
		
			<rect x="796.573" y="631.661" transform="matrix(0.9716 -0.2366 0.2366 0.9716 -129.4908 209.768)" fill="#FDB513" width="25.697" height="25.701"/>
		
			<rect x="790.494" y="606.694" transform="matrix(0.9716 -0.2366 0.2366 0.9716 -123.7553 207.6182)" fill="#FDB513" width="25.696" height="25.696"/>
		
			<rect x="784.415" y="581.722" transform="matrix(0.9716 -0.2366 0.2366 0.9716 -118.0237 205.4774)" fill="#FDB513" width="25.696" height="25.701"/>
		
			<rect x="778.336" y="556.756" transform="matrix(0.9716 -0.2366 0.2366 0.9716 -112.2872 203.3248)" fill="#FDB513" width="25.696" height="25.696"/>
		
			<rect x="772.257" y="531.784" transform="matrix(0.9716 -0.2365 0.2365 0.9716 -106.5513 201.1734)" fill="#FDB513" width="25.696" height="25.701"/>
		
			<rect x="766.178" y="506.817" transform="matrix(0.9716 -0.2365 0.2365 0.9716 -100.8149 199.02)" fill="#FDB513" width="25.696" height="25.696"/>
		
			<rect x="760.099" y="481.845" transform="matrix(0.9716 -0.2366 0.2366 0.9716 -95.0872 196.8912)" fill="#FDB513" width="25.696" height="25.701"/>
		
			<rect x="754.019" y="456.874" transform="matrix(0.9716 -0.2366 0.2366 0.9716 -89.3521 194.7432)" fill="#FDB513" width="25.696" height="25.701"/>
		
			<rect x="747.94" y="431.907" transform="matrix(0.9716 -0.2366 0.2366 0.9716 -83.6163 192.5909)" fill="#FDB513" width="25.696" height="25.696"/>
		
			<rect x="741.861" y="406.935" transform="matrix(0.9716 -0.2366 0.2366 0.9716 -77.8815 190.4416)" fill="#C95B00" width="25.697" height="25.701"/>
		
			<rect x="735.782" y="381.968" transform="matrix(0.9716 -0.2366 0.2366 0.9716 -72.1508 188.308)" fill="#FDB513" width="25.696" height="25.696"/>
		
			<rect x="801.998" y="762.589" transform="matrix(0.9716 -0.2366 0.2366 0.9716 -160.3057 214.7626)" fill="#FDB513" width="25.701" height="25.701"/>
		
			<rect x="795.919" y="737.622" transform="matrix(0.9716 -0.2366 0.2366 0.9716 -154.572 212.6165)" fill="#C95B00" width="25.701" height="25.696"/>
		
			<rect x="789.84" y="712.65" transform="matrix(0.9716 -0.2366 0.2366 0.9716 -148.8377 210.4692)" fill="#FDB513" width="25.701" height="25.701"/>
		
			<rect x="783.761" y="687.683" transform="matrix(0.9716 -0.2366 0.2366 0.9716 -143.1111 208.3366)" fill="#FDB513" width="25.701" height="25.696"/>
		
			<rect x="777.682" y="662.712" transform="matrix(0.9716 -0.2366 0.2366 0.9716 -137.3712 206.1789)" fill="#FDB513" width="25.701" height="25.701"/>
		
			<rect x="771.602" y="637.74" transform="matrix(0.9716 -0.2366 0.2366 0.9716 -131.6344 204.0275)" fill="#FDB513" width="25.701" height="25.701"/>
		
			<rect x="765.523" y="612.773" transform="matrix(0.9716 -0.2366 0.2366 0.9716 -125.9038 201.888)" fill="#FDB513" width="25.701" height="25.696"/>
		
			<rect x="759.444" y="587.802" transform="matrix(0.9716 -0.2366 0.2366 0.9716 -120.1665 199.7341)" fill="#FDB513" width="25.701" height="25.701"/>
		
			<rect x="753.365" y="562.835" transform="matrix(0.9716 -0.2366 0.2366 0.9716 -114.4343 197.5917)" fill="#FDB513" width="25.701" height="25.696"/>
		
			<rect x="747.285" y="537.863" transform="matrix(0.9716 -0.2366 0.2366 0.9716 -108.7002 195.445)" fill="#FDB513" width="25.701" height="25.701"/>
		
			<rect x="741.206" y="512.896" transform="matrix(0.9716 -0.2366 0.2366 0.9716 -102.97 193.3083)" fill="#FDB513" width="25.701" height="25.696"/>
		
			<rect x="735.127" y="487.924" transform="matrix(0.9716 -0.2366 0.2366 0.9716 -97.233 191.1542)" fill="#FDB513" width="25.701" height="25.701"/>
		
			<rect x="729.048" y="462.953" transform="matrix(0.9716 -0.2365 0.2365 0.9716 -91.4956 188.9993)" fill="#FDB513" width="25.701" height="25.701"/>
		
			<rect x="722.968" y="437.986" transform="matrix(0.9716 -0.2366 0.2366 0.9716 -85.7634 186.8578)" fill="#FDB513" width="25.701" height="25.696"/>
		
			<rect x="716.889" y="413.014" transform="matrix(0.9716 -0.2365 0.2365 0.9716 -80.0277 184.7059)" fill="#FDB513" width="25.701" height="25.701"/>
		
			<rect x="710.81" y="388.047" transform="matrix(0.9716 -0.2366 0.2366 0.9716 -74.2959 182.5669)" fill="#C95B00" width="25.701" height="25.696"/>
		
			<rect x="704.731" y="363.076" transform="matrix(0.9716 -0.2366 0.2366 0.9716 -68.5627 180.4239)" fill="#FDB513" width="25.701" height="25.701"/>
		
			<rect x="777.027" y="768.669" transform="matrix(0.9716 -0.2366 0.2366 0.9716 -162.4517 209.0266)" fill="#FDB513" width="25.701" height="25.701"/>
		
			<rect x="770.948" y="743.702" transform="matrix(0.9716 -0.2366 0.2366 0.9716 -156.7204 206.8845)" fill="#C95B00" width="25.701" height="25.696"/>
		
			<rect x="764.868" y="718.73" transform="matrix(0.9716 -0.2366 0.2366 0.9716 -150.9838 204.7332)" fill="#F3E4B6" width="25.701" height="25.701"/>
		
			<rect x="758.789" y="693.763" transform="matrix(0.9716 -0.2366 0.2366 0.9716 -145.2522 202.591)" fill="#FDB513" width="25.701" height="25.696"/>
		
			<rect x="752.71" y="668.791" transform="matrix(0.9716 -0.2366 0.2366 0.9716 -139.5158 200.4399)" fill="#FDB513" width="25.701" height="25.701"/>
		
			<rect x="728.393" y="568.914" transform="matrix(0.9716 -0.2366 0.2366 0.9716 -116.5852 191.8658)" fill="#FDB513" width="25.701" height="25.696"/>
		
			<rect x="704.076" y="469.033" transform="matrix(0.9716 -0.2366 0.2366 0.9716 -93.6434 183.2674)" fill="#FDB513" width="25.701" height="25.701"/>
		
			<rect x="697.997" y="444.066" transform="matrix(0.9716 -0.2366 0.2366 0.9716 -87.9095 181.121)" fill="#FDB513" width="25.701" height="25.696"/>
		
			<rect x="691.918" y="419.094" transform="matrix(0.9716 -0.2366 0.2366 0.9716 -82.1762 178.9765)" fill="#FDB513" width="25.701" height="25.701"/>
		
			<rect x="685.839" y="394.127" transform="matrix(0.9716 -0.2366 0.2366 0.9716 -76.4448 176.8388)" fill="#C95B00" width="25.701" height="25.696"/>
		
			<rect x="679.759" y="369.155" transform="matrix(0.9716 -0.2365 0.2365 0.9716 -70.7067 174.6781)" fill="#FDB513" width="25.701" height="25.701"/>
		
			<rect x="758.139" y="799.719" transform="matrix(0.9716 -0.2366 0.2366 0.9716 -170.3327 205.4398)" fill="#FDB513" width="25.696" height="25.696"/>
		
			<rect x="752.06" y="774.748" transform="matrix(0.9716 -0.2366 0.2366 0.9716 -164.6059 203.3046)" fill="#C95B00" width="25.696" height="25.701"/>
		
			<rect x="745.981" y="749.781" transform="matrix(0.9716 -0.2366 0.2366 0.9716 -158.8656 201.1479)" fill="#FDB513" width="25.696" height="25.696"/>
		
			<rect x="739.902" y="724.809" transform="matrix(0.9716 -0.2366 0.2366 0.9716 -153.1324 199.0026)" fill="#F3E4B6" width="25.696" height="25.701"/>
		
			<rect x="733.822" y="699.842" transform="matrix(0.9716 -0.2366 0.2366 0.9716 -147.405 196.8674)" fill="#FDB513" width="25.696" height="25.696"/>
		
			<rect x="727.743" y="674.871" transform="matrix(0.9716 -0.2366 0.2366 0.9716 -141.6659 194.7121)" fill="#FDB513" width="25.697" height="25.701"/>
		
			<rect x="679.109" y="475.112" transform="matrix(0.9716 -0.2366 0.2366 0.9716 -95.7896 177.532)" fill="#FDB513" width="25.696" height="25.701"/>
		
			<rect x="673.03" y="450.145" transform="matrix(0.9716 -0.2366 0.2366 0.9716 -90.0567 175.3882)" fill="#FDB513" width="25.696" height="25.696"/>
		
			<rect x="666.951" y="425.173" transform="matrix(0.9716 -0.2366 0.2366 0.9716 -84.3216 173.2387)" fill="#FDB513" width="25.696" height="25.701"/>
		
			<rect x="660.871" y="400.206" transform="matrix(0.9716 -0.2366 0.2366 0.9716 -78.5882 171.0936)" fill="#FDB513" width="25.696" height="25.696"/>
		
			<rect x="654.792" y="375.235" transform="matrix(0.9716 -0.2366 0.2366 0.9716 -72.8552 168.9505)" fill="#C95B00" width="25.697" height="25.701"/>
		
			<rect x="648.713" y="350.268" transform="matrix(0.9716 -0.2366 0.2366 0.9716 -67.1227 166.8096)" fill="#FDB513" width="25.696" height="25.696"/>
		
			<rect x="733.167" y="805.799" transform="matrix(0.9716 -0.2366 0.2366 0.9716 -172.4893 199.7205)" fill="#FDB513" width="25.701" height="25.696"/>
		
			<rect x="727.088" y="780.827" transform="matrix(0.9716 -0.2366 0.2366 0.9716 -166.7461 197.5602)" fill="#C95B00" width="25.701" height="25.701"/>
		
			<rect x="721.009" y="755.86" transform="matrix(0.9716 -0.2366 0.2366 0.9716 -161.0123 195.4138)" fill="#F3E4B6" width="25.701" height="25.696"/>
		
			<rect x="714.93" y="730.888" transform="matrix(0.9716 -0.2366 0.2366 0.9716 -155.2771 193.2653)" fill="#FDB513" width="25.701" height="25.701"/>
		
			<rect x="708.851" y="705.921" transform="matrix(0.9716 -0.2366 0.2366 0.9716 -149.5457 191.1228)" fill="#FDB513" width="25.701" height="25.696"/>
		
			<rect x="690.613" y="631.011" transform="matrix(0.9716 -0.2366 0.2366 0.9716 -132.3417 184.6801)" fill="#FDB513" width="25.701" height="25.696"/>
		
			<rect x="684.534" y="606.04" transform="matrix(0.9716 -0.2366 0.2366 0.9716 -126.6102 182.5382)" fill="#FDB513" width="25.701" height="25.701"/>
		
			<rect x="672.375" y="556.101" transform="matrix(0.9716 -0.2366 0.2366 0.9716 -115.1388 178.2383)" fill="#FDB513" width="25.701" height="25.701"/>
		
			<rect x="666.296" y="531.134" transform="matrix(0.9716 -0.2366 0.2366 0.9716 -109.4066 176.0955)" fill="#FDB513" width="25.701" height="25.696"/>
		
			<rect x="648.058" y="456.224" transform="matrix(0.9716 -0.2366 0.2366 0.9716 -92.2029 169.653)" fill="#FDB513" width="25.701" height="25.696"/>
		
			<rect x="641.979" y="431.252" transform="matrix(0.9716 -0.2366 0.2366 0.9716 -86.4683 167.5047)" fill="#FDB513" width="25.701" height="25.701"/>
		
			<rect x="635.9" y="406.285" transform="matrix(0.9716 -0.2366 0.2366 0.9716 -80.7356 165.3616)" fill="#FDB513" width="25.701" height="25.696"/>
		
			<rect x="629.821" y="381.314" transform="matrix(0.9716 -0.2365 0.2365 0.9716 -75 163.2102)" fill="#C95B00" width="25.701" height="25.701"/>
		
			<rect x="623.742" y="356.347" transform="matrix(0.9716 -0.2366 0.2366 0.9716 -69.2672 161.0673)" fill="#FDB513" width="25.701" height="25.696"/>
		
			<rect x="708.2" y="811.878" transform="matrix(0.9716 -0.2365 0.2365 0.9716 -174.619 193.9617)" fill="#FDB513" width="25.696" height="25.696"/>
		
			<rect x="702.121" y="786.906" transform="matrix(0.9716 -0.2366 0.2366 0.9716 -168.8996 191.836)" fill="#C95B00" width="25.696" height="25.701"/>
		
			<rect x="696.042" y="761.939" transform="matrix(0.9716 -0.2366 0.2366 0.9716 -163.16 189.6812)" fill="#F3E4B6" width="25.696" height="25.696"/>
		
			<rect x="689.963" y="736.968" transform="matrix(0.9716 -0.2366 0.2366 0.9716 -157.4238 187.5313)" fill="#FDB513" width="25.696" height="25.701"/>
		
			<rect x="683.884" y="712" transform="matrix(0.9716 -0.2366 0.2366 0.9716 -151.6979 185.3973)" fill="#FDB513" width="25.696" height="25.696"/>
		
			<rect x="665.646" y="637.09" transform="matrix(0.9716 -0.2366 0.2366 0.9716 -134.4891 178.9474)" fill="#FDB513" width="25.696" height="25.696"/>
		
			<rect x="659.566" y="612.119" transform="matrix(0.9716 -0.2366 0.2366 0.9716 -128.7534 176.7977)" fill="#FDB513" width="25.697" height="25.701"/>
		
			<rect x="647.408" y="562.18" transform="matrix(0.9716 -0.2366 0.2366 0.9716 -117.2869 172.5072)" fill="#FDB513" width="25.696" height="25.701"/>
		
			<rect x="641.329" y="537.213" transform="matrix(0.9716 -0.2366 0.2366 0.9716 -111.5523 170.3593)" fill="#FDB513" width="25.696" height="25.696"/>
		
			<rect x="629.17" y="487.27" transform="matrix(0.9716 -0.2366 0.2366 0.9716 -100.083 166.0641)" fill="#FDB513" width="25.696" height="25.701"/>
		
			<rect x="623.091" y="462.303" transform="matrix(0.9716 -0.2366 0.2366 0.9716 -94.3497 163.9189)" fill="#FDB513" width="25.696" height="25.696"/>
		
			<rect x="617.012" y="437.332" transform="matrix(0.9716 -0.2366 0.2366 0.9716 -88.6161 161.7734)" fill="#FDB513" width="25.696" height="25.701"/>
		
			<rect x="610.933" y="412.365" transform="matrix(0.9716 -0.2366 0.2366 0.9716 -82.8816 159.6255)" fill="#FDB513" width="25.696" height="25.696"/>
		
			<rect x="604.854" y="387.393" transform="matrix(0.9716 -0.2366 0.2366 0.9716 -77.147 157.4774)" fill="#C95B00" width="25.697" height="25.701"/>
		
			<rect x="598.775" y="362.426" transform="matrix(0.9716 -0.2366 0.2366 0.9716 -71.4164 155.3409)" fill="#FDB513" width="25.696" height="25.696"/>
		
			<rect x="683.229" y="817.957" transform="matrix(0.9716 -0.2366 0.2366 0.9716 -176.7748 188.2406)" fill="#FDB513" width="25.701" height="25.696"/>
		
			<rect x="677.15" y="792.985" transform="matrix(0.9716 -0.2366 0.2366 0.9716 -171.0464 186.1017)" fill="#C95B00" width="25.701" height="25.701"/>
		
			<rect x="671.071" y="768.018" transform="matrix(0.9716 -0.2366 0.2366 0.9716 -165.3093 183.9508)" fill="#FDB513" width="25.701" height="25.696"/>
		
			<rect x="664.991" y="743.047" transform="matrix(0.9716 -0.2366 0.2366 0.9716 -159.5779 181.8081)" fill="#FDB513" width="25.701" height="25.701"/>
		
			<rect x="658.912" y="718.08" transform="matrix(0.9716 -0.2366 0.2366 0.9716 -153.8377 179.6524)" fill="#FDB513" width="25.701" height="25.696"/>
		
			<rect x="598.12" y="468.382" transform="matrix(0.9716 -0.2366 0.2366 0.9716 -96.4973 158.1869)" fill="#FDB513" width="25.701" height="25.696"/>
		
			<rect x="592.041" y="443.411" transform="matrix(0.9716 -0.2366 0.2366 0.9716 -90.7617 156.0368)" fill="#FDB513" width="25.701" height="25.701"/>
		
			<rect x="585.961" y="418.444" transform="matrix(0.9716 -0.2366 0.2366 0.9716 -85.0319 153.9003)" fill="#FDB513" width="25.701" height="25.696"/>
		
			<rect x="579.882" y="393.472" transform="matrix(0.9716 -0.2366 0.2366 0.9716 -79.2937 151.7434)" fill="#C95B00" width="25.701" height="25.701"/>
		
			<rect x="573.803" y="368.505" transform="matrix(0.9716 -0.2366 0.2366 0.9716 -73.5606 149.5991)" fill="#FDB513" width="25.701" height="25.696"/>
		
			<rect x="658.262" y="824.036" transform="matrix(0.9716 -0.2365 0.2365 0.9716 -178.9121 182.4943)" fill="#FDB513" width="25.696" height="25.696"/>
		
			<rect x="652.183" y="799.064" transform="matrix(0.9716 -0.2366 0.2366 0.9716 -173.1875 180.3598)" fill="#C95B00" width="25.696" height="25.701"/>
		
			<rect x="646.104" y="774.097" transform="matrix(0.9716 -0.2366 0.2366 0.9716 -167.4525 178.2118)" fill="#E88323" width="25.696" height="25.696"/>
		
			<rect x="640.024" y="749.126" transform="matrix(0.9716 -0.2366 0.2366 0.9716 -161.7172 176.0634)" fill="#FDB513" width="25.696" height="25.701"/>
		
			<rect x="633.945" y="724.159" transform="matrix(0.9716 -0.2366 0.2366 0.9716 -155.9835 173.9171)" fill="#FDB513" width="25.696" height="25.696"/>
		
			<rect x="627.866" y="699.187" transform="matrix(0.9716 -0.2366 0.2366 0.9716 -150.2492 171.77)" fill="#FDB513" width="25.697" height="25.701"/>
		
			<rect x="579.232" y="499.428" transform="matrix(0.9716 -0.2366 0.2366 0.9716 -104.3788 154.6009)" fill="#FDB513" width="25.696" height="25.701"/>
		
			<rect x="573.153" y="474.461" transform="matrix(0.9716 -0.2365 0.2365 0.9716 -98.6388 152.4421)" fill="#FDB513" width="25.696" height="25.696"/>
		
			<rect x="567.074" y="449.49" transform="matrix(0.9716 -0.2366 0.2366 0.9716 -92.9124 150.3114)" fill="#FDB513" width="25.696" height="25.701"/>
		
			<rect x="560.994" y="424.523" transform="matrix(0.9716 -0.2366 0.2366 0.9716 -87.175 148.1575)" fill="#E88323" width="25.696" height="25.696"/>
		
			<rect x="554.915" y="399.551" transform="matrix(0.9716 -0.2366 0.2366 0.9716 -81.4404 146.0094)" fill="#C95B00" width="25.697" height="25.701"/>
		
			<rect x="548.836" y="374.584" transform="matrix(0.9716 -0.2366 0.2366 0.9716 -75.7066 143.8631)" fill="#FDB513" width="25.696" height="25.696"/>
		
			<rect x="627.211" y="805.143" transform="matrix(0.9716 -0.2366 0.2366 0.9716 -175.3391 174.6319)" fill="#FDB513" width="25.701" height="25.701"/>
		
			<rect x="621.132" y="780.177" transform="matrix(0.9716 -0.2365 0.2365 0.9716 -169.5922 172.4687)" fill="#C95B00" width="25.701" height="25.696"/>
		
			<rect x="615.053" y="755.205" transform="matrix(0.9716 -0.2366 0.2366 0.9716 -163.8668 170.3332)" fill="#E88323" width="25.701" height="25.701"/>
		
			<rect x="608.974" y="730.238" transform="matrix(0.9716 -0.2366 0.2366 0.9716 -158.1311 168.1843)" fill="#FDB513" width="25.701" height="25.696"/>
		
			<rect x="602.895" y="705.266" transform="matrix(0.9716 -0.2366 0.2366 0.9716 -152.4003 166.0421)" fill="#FDB513" width="25.701" height="25.701"/>
		
			<rect x="590.736" y="655.328" transform="matrix(0.9716 -0.2366 0.2366 0.9716 -140.9293 161.7452)" fill="#FDB513" width="25.701" height="25.696"/>
		
			<rect x="584.656" y="630.356" transform="matrix(0.9716 -0.2366 0.2366 0.9716 -135.1935 159.5957)" fill="#FDB513" width="25.701" height="25.701"/>
		
			<rect x="578.577" y="605.389" transform="matrix(0.9716 -0.2366 0.2366 0.9716 -129.4664 157.4599)" fill="#FDB513" width="25.701" height="25.696"/>
		
			<rect x="572.498" y="580.418" transform="matrix(0.9716 -0.2366 0.2366 0.9716 -123.7255 155.3024)" fill="#FDB513" width="25.701" height="25.701"/>
		
			<rect x="566.419" y="555.451" transform="matrix(0.9716 -0.2366 0.2366 0.9716 -117.9924 153.1572)" fill="#FDB513" width="25.701" height="25.696"/>
		
			<rect x="554.26" y="505.507" transform="matrix(0.9716 -0.2366 0.2366 0.9716 -106.5278 148.8708)" fill="#FDB513" width="25.701" height="25.701"/>
		
			<rect x="548.181" y="480.541" transform="matrix(0.9716 -0.2366 0.2366 0.9716 -100.7898 146.7169)" fill="#FDB513" width="25.701" height="25.696"/>
		
			<rect x="542.102" y="455.569" transform="matrix(0.9716 -0.2366 0.2366 0.9716 -95.0551 144.5688)" fill="#F9912B" width="25.701" height="25.701"/>
		
			<rect x="536.023" y="430.602" transform="matrix(0.9716 -0.2366 0.2366 0.9716 -89.3225 142.4252)" fill="#C95B00" width="25.701" height="25.696"/>
		
			<rect x="529.944" y="405.63" transform="matrix(0.9716 -0.2366 0.2366 0.9716 -83.5871 140.2754)" fill="#FDB513" width="25.701" height="25.701"/>
		
			<rect x="602.24" y="811.223" transform="matrix(0.9716 -0.2365 0.2365 0.9716 -177.4777 168.887)" fill="#FDB513" width="25.701" height="25.701"/>
		
			<rect x="596.16" y="786.256" transform="matrix(0.9716 -0.2366 0.2366 0.9716 -171.7458 166.7429)" fill="#C95B00" width="25.701" height="25.696"/>
		
			<rect x="590.081" y="761.285" transform="matrix(0.9716 -0.2365 0.2365 0.9716 -166.0098 164.5936)" fill="#F9912B" width="25.701" height="25.701"/>
		
			<rect x="584.002" y="736.318" transform="matrix(0.9716 -0.2366 0.2366 0.9716 -160.2796 162.4518)" fill="#FDB513" width="25.701" height="25.696"/>
		
			<rect x="577.923" y="711.346" transform="matrix(0.9716 -0.2365 0.2365 0.9716 -154.5419 160.3003)" fill="#FDB513" width="25.701" height="25.701"/>
		
			<rect x="571.843" y="686.374" transform="matrix(0.9716 -0.2366 0.2366 0.9716 -148.8152 158.164)" fill="#FDB513" width="25.701" height="25.701"/>
		
			<rect x="565.764" y="661.408" transform="matrix(0.9716 -0.2365 0.2365 0.9716 -143.0696 156.0013)" fill="#FDB513" width="25.701" height="25.696"/>
		
			<rect x="559.685" y="636.436" transform="matrix(0.9716 -0.2366 0.2366 0.9716 -137.3459 153.8693)" fill="#FDB513" width="25.701" height="25.701"/>
		
			<rect x="553.606" y="611.469" transform="matrix(0.9716 -0.2366 0.2366 0.9716 -131.6081 151.7171)" fill="#FDB513" width="25.701" height="25.696"/>
		
			<rect x="547.527" y="586.497" transform="matrix(0.9716 -0.2365 0.2365 0.9716 -125.8717 149.5668)" fill="#FDB513" width="25.701" height="25.701"/>
		
			<rect x="541.447" y="561.53" transform="matrix(0.9716 -0.2366 0.2366 0.9716 -120.1391 147.4222)" fill="#FDB513" width="25.701" height="25.696"/>
		
			<rect x="535.368" y="536.559" transform="matrix(0.9716 -0.2366 0.2366 0.9716 -114.4064 145.2777)" fill="#FDB513" width="25.701" height="25.701"/>
		
			<rect x="529.289" y="511.587" transform="matrix(0.9716 -0.2366 0.2366 0.9716 -108.6718 143.1308)" fill="#FDB513" width="25.701" height="25.701"/>
		
			<rect x="523.209" y="486.62" transform="matrix(0.9716 -0.2366 0.2366 0.9716 -102.9388 140.9861)" fill="#F9912B" width="25.701" height="25.696"/>
		
			<rect x="517.13" y="461.649" transform="matrix(0.9716 -0.2366 0.2366 0.9716 -97.2025 138.8354)" fill="#F9912B" width="25.701" height="25.701"/>
		
			<rect x="511.051" y="436.682" transform="matrix(0.9716 -0.2366 0.2366 0.9716 -91.4691 136.6898)" fill="#C95B00" width="25.701" height="25.696"/>
		
			<rect x="504.972" y="411.71" transform="matrix(0.9716 -0.2366 0.2366 0.9716 -85.7354 134.5439)" fill="#FDB513" width="25.701" height="25.701"/>
		
			<rect x="571.193" y="792.336" transform="matrix(0.9716 -0.2365 0.2365 0.9716 -173.8855 161.0006)" fill="#FDB513" width="25.696" height="25.696"/>
		
			<rect x="565.114" y="767.364" transform="matrix(0.9716 -0.2366 0.2366 0.9716 -168.1637 158.8684)" fill="#C95B00" width="25.696" height="25.701"/>
		
			<rect x="559.035" y="742.397" transform="matrix(0.9716 -0.2366 0.2366 0.9716 -162.4247 156.7157)" fill="#F9912B" width="25.696" height="25.696"/>
		
			<rect x="552.956" y="717.425" transform="matrix(0.9716 -0.2366 0.2366 0.9716 -156.6895 154.5675)" fill="#E88323" width="25.696" height="25.701"/>
		
			<rect x="546.876" y="692.454" transform="matrix(0.9716 -0.2366 0.2366 0.9716 -150.9612 152.4286)" fill="#FDB513" width="25.696" height="25.701"/>
		
			<rect x="540.797" y="667.487" transform="matrix(0.9716 -0.2366 0.2366 0.9716 -145.2229 150.2765)" fill="#FDB513" width="25.696" height="25.696"/>
		
			<rect x="534.718" y="642.515" transform="matrix(0.9716 -0.2365 0.2365 0.9716 -139.4862 148.1262)" fill="#FDB513" width="25.696" height="25.701"/>
		
			<rect x="528.639" y="617.548" transform="matrix(0.9716 -0.2366 0.2366 0.9716 -133.761 145.9917)" fill="#FDB513" width="25.696" height="25.696"/>
		
			<rect x="522.559" y="592.577" transform="matrix(0.9716 -0.2366 0.2366 0.9716 -128.0191 143.8339)" fill="#FDB513" width="25.697" height="25.701"/>
		
			<rect x="516.48" y="567.61" transform="matrix(0.9716 -0.2366 0.2366 0.9716 -122.2881 141.6918)" fill="#FDB513" width="25.696" height="25.696"/>
		
			<rect x="510.401" y="542.638" transform="matrix(0.9716 -0.2366 0.2366 0.9716 -116.5526 139.5429)" fill="#FDB513" width="25.696" height="25.701"/>
		
			<rect x="504.322" y="517.666" transform="matrix(0.9716 -0.2366 0.2366 0.9716 -110.818 137.396)" fill="#E88323" width="25.696" height="25.701"/>
		
			<rect x="498.242" y="492.699" transform="matrix(0.9716 -0.2366 0.2366 0.9716 -105.0828 135.2473)" fill="#F9912B" width="25.696" height="25.696"/>
		
			<rect x="492.163" y="467.728" transform="matrix(0.9716 -0.2366 0.2366 0.9716 -99.3531 133.108)" fill="#C95B00" width="25.696" height="25.701"/>
		
			<rect x="486.084" y="442.761" transform="matrix(0.9716 -0.2366 0.2366 0.9716 -93.6179 130.9596)" fill="#FDB513" width="25.696" height="25.696"/>
		
			<rect x="540.143" y="773.443" transform="matrix(0.9716 -0.2366 0.2366 0.9716 -170.3113 153.1351)" fill="#FDB513" width="25.701" height="25.701"/>
		
			<rect x="534.064" y="748.476" transform="matrix(0.9716 -0.2365 0.2365 0.9716 -164.5645 150.9737)" fill="#C95B00" width="25.701" height="25.696"/>
		
			<rect x="527.984" y="723.504" transform="matrix(0.9716 -0.2366 0.2366 0.9716 -158.8428 148.8414)" fill="#F9912B" width="25.701" height="25.701"/>
		
			<rect x="521.905" y="698.533" transform="matrix(0.9716 -0.2366 0.2366 0.9716 -153.1089 146.6955)" fill="#F9912B" width="25.701" height="25.701"/>
		
			<rect x="515.825" y="673.566" transform="matrix(0.9716 -0.2365 0.2365 0.9716 -147.3627 144.5338)" fill="#E88323" width="25.701" height="25.696"/>
		
			<rect x="509.746" y="648.594" transform="matrix(0.9716 -0.2366 0.2366 0.9716 -141.6362 142.3965)" fill="#FDB513" width="25.701" height="25.701"/>
		
			<rect x="503.667" y="623.627" transform="matrix(0.9716 -0.2366 0.2366 0.9716 -135.9037 140.2518)" fill="#FDB513" width="25.701" height="25.696"/>
		
			<rect x="497.588" y="598.656" transform="matrix(0.9716 -0.2366 0.2366 0.9716 -130.1665 138.1009)" fill="#FDB513" width="25.701" height="25.701"/>
		
			<rect x="491.509" y="573.689" transform="matrix(0.9716 -0.2366 0.2366 0.9716 -124.4325 135.9542)" fill="#E88323" width="25.701" height="25.696"/>
		
			<rect x="485.43" y="548.717" transform="matrix(0.9716 -0.2366 0.2366 0.9716 -118.6999 133.8095)" fill="#F9912B" width="25.701" height="25.701"/>
		
			<rect x="479.35" y="523.745" transform="matrix(0.9716 -0.2365 0.2365 0.9716 -112.9626 131.6587)" fill="#F9912B" width="25.701" height="25.701"/>
		
			<rect x="473.271" y="498.779" transform="matrix(0.9716 -0.2366 0.2366 0.9716 -107.2356 129.5228)" fill="#C95B00" width="25.701" height="25.696"/>
		
			<rect x="467.192" y="473.807" transform="matrix(0.9716 -0.2366 0.2366 0.9716 -101.4959 127.3673)" fill="#FDB513" width="25.701" height="25.701"/>
		
			<rect x="509.096" y="754.555" transform="matrix(0.9716 -0.2366 0.2366 0.9716 -166.7172 145.2466)" fill="#FDB513" width="25.696" height="25.696"/>
		
			<rect x="503.017" y="729.584" transform="matrix(0.9716 -0.2366 0.2366 0.9716 -160.9889 143.1064)" fill="#C95B00" width="25.696" height="25.701"/>
		
			<rect x="496.938" y="704.612" transform="matrix(0.9716 -0.2366 0.2366 0.9716 -155.2523 140.9572)" fill="#C95B00" width="25.696" height="25.701"/>
		
			<rect x="490.859" y="679.645" transform="matrix(0.9716 -0.2366 0.2366 0.9716 -149.5147 138.8064)" fill="#F9912B" width="25.696" height="25.696"/>
		
			<rect x="484.779" y="654.673" transform="matrix(0.9716 -0.2366 0.2366 0.9716 -143.7823 136.6617)" fill="#F9912B" width="25.696" height="25.701"/>
		
			<rect x="478.7" y="629.706" transform="matrix(0.9716 -0.2366 0.2366 0.9716 -138.0483 134.515)" fill="#F9912B" width="25.696" height="25.696"/>
		
			<rect x="472.621" y="604.735" transform="matrix(0.9716 -0.2366 0.2366 0.9716 -132.3158 132.3703)" fill="#F9912B" width="25.696" height="25.701"/>
		
			<rect x="466.542" y="579.768" transform="matrix(0.9716 -0.2366 0.2366 0.9716 -126.5861 130.2293)" fill="#E88323" width="25.696" height="25.696"/>
		
			<rect x="460.463" y="554.796" transform="matrix(0.9716 -0.2366 0.2366 0.9716 -120.8474 128.0766)" fill="#C95B00" width="25.696" height="25.701"/>
		
			<rect x="454.383" y="529.825" transform="matrix(0.9716 -0.2366 0.2366 0.9716 -115.1146 125.9323)" fill="#C95B00" width="25.696" height="25.701"/>
		
			<rect x="448.304" y="504.858" transform="matrix(0.9716 -0.2366 0.2366 0.9716 -109.3762 123.7793)" fill="#FDB513" width="25.696" height="25.696"/>
		
			<rect x="484.125" y="760.634" transform="matrix(0.9716 -0.2366 0.2366 0.9716 -168.8686 139.5176)" fill="#FDB513" width="25.701" height="25.696"/>
		
			<rect x="478.046" y="735.663" transform="matrix(0.9716 -0.2365 0.2365 0.9716 -163.1286 137.3646)" fill="#FDB513" width="25.701" height="25.701"/>
		
			<rect x="471.966" y="710.691" transform="matrix(0.9716 -0.2366 0.2366 0.9716 -157.396 135.2198)" fill="#FDB513" width="25.701" height="25.701"/>
		
			<rect x="465.887" y="685.724" transform="matrix(0.9716 -0.2366 0.2366 0.9716 -151.6619 133.073)" fill="#C95B00" width="25.701" height="25.696"/>
		
			<rect x="459.808" y="660.753" transform="matrix(0.9716 -0.2366 0.2366 0.9716 -145.9297 130.9283)" fill="#C95B00" width="25.701" height="25.701"/>
		
			<rect x="453.729" y="635.786" transform="matrix(0.9716 -0.2366 0.2366 0.9716 -140.1956 128.7816)" fill="#C95B00" width="25.701" height="25.696"/>
		
			<rect x="447.649" y="610.814" transform="matrix(0.9716 -0.2366 0.2366 0.9716 -134.4655 126.6396)" fill="#C95B00" width="25.701" height="25.701"/>
		
			<rect x="441.57" y="585.847" transform="matrix(0.9716 -0.2365 0.2365 0.9716 -128.72 124.479)" fill="#C95B00" width="25.701" height="25.696"/>
		
			<rect x="435.491" y="560.875" transform="matrix(0.9716 -0.2366 0.2366 0.9716 -122.9969 122.3459)" fill="#FDB513" width="25.701" height="25.701"/>
		
			<rect x="429.411" y="535.904" transform="matrix(0.9716 -0.2366 0.2366 0.9716 -117.2615 120.198)" fill="#FDB513" width="25.701" height="25.701"/>
		
			<rect x="446.999" y="716.77" transform="matrix(0.9716 -0.2366 0.2366 0.9716 -159.5458 129.4889)" fill="#FDB513" width="25.696" height="25.701"/>
		
			<rect x="440.92" y="691.803" transform="matrix(0.9716 -0.2366 0.2366 0.9716 -153.8117 127.3423)" fill="#FDB513" width="25.696" height="25.696"/>
		
			<rect x="434.841" y="666.832" transform="matrix(0.9716 -0.2366 0.2366 0.9716 -148.0758 125.1935)" fill="#FDB513" width="25.696" height="25.701"/>
		
			<rect x="428.762" y="641.865" transform="matrix(0.9716 -0.2366 0.2366 0.9716 -142.3417 123.0468)" fill="#FDB513" width="25.696" height="25.696"/>
		
			<rect x="422.682" y="616.893" transform="matrix(0.9716 -0.2366 0.2366 0.9716 -136.6077 120.9001)" fill="#FDB513" width="25.696" height="25.701"/>
		
			<rect x="416.603" y="591.926" transform="matrix(0.9716 -0.2366 0.2366 0.9716 -130.8798 118.7606)" fill="#FDB513" width="25.696" height="25.696"/>
		<g>
			<polygon fill="#1A2D48" points="108.553,697.677 89.035,697.677 69.518,697.677 69.518,678.159 89.035,678.159 89.035,658.642 
				69.518,658.642 50,658.642 50,678.159 50,697.677 50,717.194 69.518,717.194 89.035,717.194 108.553,717.194 128.07,717.194 
				128.07,697.677 			"/>
			<polygon fill="#1A2D48" points="128.07,658.642 128.07,639.124 147.588,639.124 167.105,639.124 167.105,619.607 
				186.622,619.607 206.14,619.607 225.658,619.607 245.175,619.607 264.693,619.607 284.21,619.607 284.21,600.089 
				264.693,600.089 264.693,580.572 245.175,580.572 225.658,580.572 206.14,580.572 186.622,580.572 186.622,600.089 
				167.105,600.089 147.588,600.089 147.588,619.607 128.07,619.607 108.553,619.607 108.553,639.124 89.035,639.124 
				89.035,658.642 108.553,658.642 			"/>
			<polygon fill="#1A2D48" points="1071.93,582.528 1052.413,582.528 1032.895,582.528 1013.378,582.528 993.86,582.528 
				974.343,582.528 954.825,582.528 939.804,582.528 937.636,573.623 935.308,564.062 935.052,563.01 931.556,548.652 
				930.3,543.493 925.548,523.975 925.477,523.685 920.796,504.458 919.398,498.713 916.044,484.94 915.79,483.896 913.319,473.746 
				911.293,465.423 907.239,448.774 896.273,451.444 882.268,454.854 880.089,445.905 876.755,432.212 876.188,429.883 
				857.238,434.496 857.238,426.388 857.238,406.87 876.755,406.87 876.755,387.353 896.273,387.353 915.79,387.353 
				935.308,387.353 954.825,387.353 974.343,387.353 974.343,406.87 993.86,406.87 993.86,426.388 1013.378,426.388 
				1013.378,445.905 1032.895,445.905 1052.413,445.905 1052.413,426.388 1032.895,426.388 1032.895,406.87 1013.378,406.87 
				1013.378,387.353 1013.378,387.352 993.86,387.352 993.86,367.835 993.86,367.835 974.343,367.835 954.825,367.835 
				935.308,367.835 915.79,367.835 896.273,367.835 876.755,367.835 876.755,387.352 857.238,387.352 839.387,387.352 
				839.063,386.023 814.091,392.102 808.012,367.135 783.046,373.214 776.966,348.242 751.994,354.322 745.916,329.355 
				720.949,335.434 695.977,341.513 689.897,316.542 664.926,322.621 639.959,328.7 614.987,334.78 590.02,340.858 567.417,346.362 
				518.42,346.362 498.903,346.362 479.385,346.362 459.868,346.362 440.35,346.362 420.833,346.362 401.315,346.362 
				401.315,365.879 381.798,365.879 381.798,385.397 401.315,385.397 420.833,385.397 420.833,365.879 440.35,365.879 
				459.868,365.879 479.385,365.879 498.903,365.879 516.761,365.879 518.42,372.692 521.19,384.068 518.42,384.742 
				515.733,385.397 498.903,389.494 496.218,390.148 479.385,394.246 471.251,396.226 473.366,404.914 477.33,421.193 
				464.029,424.432 459.868,425.445 452.358,427.273 456.418,443.949 458.438,452.245 440.35,456.648 433.471,458.323 
				434.723,463.467 439.475,482.984 439.55,483.29 420.833,487.847 414.578,489.37 417.775,502.502 420.658,514.341 
				420.833,515.059 422.527,522.019 426.736,539.308 451.708,533.229 445.629,508.262 470.596,502.183 464.516,477.211 
				489.488,471.132 483.41,446.165 508.376,440.086 502.297,415.115 527.269,409.035 552.24,402.955 546.161,377.988 
				571.128,371.91 596.1,365.83 621.067,359.751 646.039,353.672 671.005,347.593 677.084,372.56 702.056,366.48 727.027,360.401 
				733.107,385.372 758.074,379.294 764.153,404.261 789.124,398.181 795.204,423.152 820.171,417.074 826.25,442.041 
				851.221,435.961 857.301,460.933 863.38,485.904 888.348,479.826 894.426,504.793 900.506,529.764 906.584,554.731 
				912.664,579.703 918.743,604.67 924.822,629.641 949.794,623.562 944.555,602.045 954.825,602.045 974.343,602.045 
				993.86,602.045 993.86,602.045 1013.378,602.045 1032.895,602.045 1052.413,602.045 1071.93,602.045 1091.448,602.045 
				1110.965,602.045 1110.965,582.528 1091.448,582.528 			"/>
			<rect x="1110.965" y="563.01" fill="#1A2D48" width="19.518" height="19.517"/>
			<rect x="167.105" y="561.054" fill="#1A2D48" width="19.518" height="19.517"/>
			<polygon fill="#1A2D48" points="225.658,561.054 225.658,541.536 206.14,541.536 186.622,541.536 186.622,561.054 
				206.14,561.054 			"/>
			<polygon fill="#1A2D48" points="264.693,541.536 284.21,541.536 303.728,541.536 323.245,541.536 342.762,541.536 
				342.762,522.019 323.245,522.019 323.245,502.502 303.728,502.502 303.728,522.019 284.21,522.019 264.693,522.019 
				245.175,522.019 225.658,522.019 225.658,541.536 245.175,541.536 			"/>
			<polygon fill="#1A2D48" points="1130.483,484.94 1130.483,504.458 1130.483,523.975 1130.483,543.493 1130.483,563.01 
				1150,563.01 1150,543.493 1150,523.975 1150,523.975 1150,504.458 1150,484.94 			"/>
			<rect x="1110.965" y="465.423" fill="#1A2D48" width="19.518" height="19.517"/>
			<polygon fill="#1A2D48" points="303.728,463.467 284.21,463.467 284.21,443.949 284.21,424.432 284.21,404.914 303.728,404.914 
				323.245,404.914 342.762,404.914 362.28,404.914 381.798,404.914 381.798,385.397 362.28,385.397 342.762,385.397 
				323.245,385.397 303.728,385.397 284.21,385.397 264.693,385.397 245.175,385.397 245.175,404.914 245.175,424.432 
				264.693,424.432 264.693,443.949 264.693,463.467 264.693,482.984 284.21,482.984 284.21,502.502 303.728,502.502 
				303.728,482.984 			"/>
			<polygon fill="#1A2D48" points="1071.93,465.423 1091.448,465.423 1110.965,465.423 1110.965,445.905 1091.448,445.905 
				1071.93,445.905 1052.413,445.905 1052.413,465.423 			"/>
			<polygon fill="#1A2D48" points="905.935,660.692 912.014,685.659 936.981,679.58 930.902,654.613 924.822,629.641 
				899.855,635.72 			"/>
			<polygon fill="#1A2D48" points="862.075,697.817 868.155,722.789 843.183,728.868 849.262,753.835 824.295,759.914 
				830.375,784.885 805.403,790.965 780.431,797.045 786.51,822.012 761.543,828.09 736.571,834.17 711.604,840.249 
				686.633,846.328 661.666,852.407 655.587,827.44 630.616,833.52 605.644,839.599 599.564,814.628 574.597,820.706 
				568.519,795.739 543.547,801.819 537.467,776.847 512.5,782.926 487.529,789.006 489.053,795.264 489.028,795.264 
				487.506,789.011 487.529,789.006 481.451,764.039 475.371,739.067 450.404,745.146 453.102,756.229 456.483,770.117 
				457.854,775.747 459.052,780.67 459.139,781.026 459.117,781.032 462.582,795.264 459.653,795.264 459.582,795.264 
				459.052,795.264 440.064,795.264 440.064,814.782 439.962,814.782 439.962,795.264 439.361,795.264 420.444,795.264 
				420.444,814.782 401.315,814.782 400.926,814.782 381.798,814.782 381.409,814.782 362.28,814.782 361.891,814.782 
				342.762,814.782 323.245,814.782 303.728,814.782 284.21,814.782 264.693,814.782 245.175,814.782 245.175,795.264 
				225.658,795.264 225.658,775.747 206.14,775.747 206.14,756.229 186.622,756.229 186.622,736.711 167.105,736.711 
				167.105,717.194 147.588,717.194 128.07,717.194 128.07,736.711 147.588,736.711 147.588,756.229 167.105,756.229 
				167.105,775.747 186.622,775.747 186.622,795.264 206.14,795.264 206.14,814.782 225.658,814.782 225.658,834.299 
				245.175,834.299 264.693,834.299 284.21,834.299 303.728,834.299 323.245,834.299 342.762,834.299 362.28,834.299 
				381.798,834.299 401.315,834.299 420.833,834.299 440.35,834.299 440.35,814.782 459.582,814.782 479.099,814.782 
				498.617,814.782 520.256,814.782 524.659,832.865 549.626,826.786 555.705,851.758 580.677,845.678 586.756,870.645 
				611.723,864.566 636.694,858.487 642.774,883.458 667.745,877.379 692.712,871.3 717.684,865.22 742.651,859.142 
				767.623,853.062 792.59,846.983 817.561,840.904 811.481,815.932 836.453,809.852 861.42,803.774 855.341,778.807 
				880.313,772.727 874.234,747.755 899.2,741.677 893.122,716.71 918.093,710.63 912.014,685.659 887.042,691.738 			"/>
			<path fill="#1A2D48" d="M762.848,616.178l-6.08-24.972l-24.971,6.08l-6.079-24.967l24.972-6.08l-6.08-24.972l-6.078-24.967
				l-6.08-24.972l-24.972,6.08l-24.967,6.079l-6.08-24.971l-24.972,6.08l6.08,24.972l-24.967,6.079l-6.08-24.971l-24.972,6.08
				l6.08,24.972l-24.967,6.079l-24.972,6.08l6.08,24.971l24.972-6.08l6.079,24.967l6.08,24.971l6.078,24.967l6.08,24.971
				l6.079,24.967l-24.972,6.08l6.08,24.972l24.971-6.08l24.967-6.079l6.08,24.971l24.971-6.08l24.967-6.079l24.971-6.08
				l-6.08-24.972l24.967-6.079l24.971-6.08l-6.08-24.971L762.848,616.178z M650.813,590.556l-6.08-24.971l-6.079-24.967
				l24.967-6.079l24.972-6.08l6.079,24.967l6.08,24.971l-24.972,6.08L650.813,590.556z M694.017,659.383l-24.967,6.079
				l-6.079-24.967l-6.08-24.971l24.967-6.079l24.971-6.08l6.08,24.971l6.079,24.967L694.017,659.383z"/>
			<polygon fill="#1A2D48" points="417.585,541.536 401.769,545.387 405.584,561.054 407.849,570.359 401.315,571.949 
				382.877,576.438 383.884,580.572 388.635,600.089 388.957,601.41 393.387,619.607 395.036,626.377 398.139,639.124 
				401.115,651.349 401.315,652.169 402.891,658.642 407.194,676.315 407.643,678.159 412.395,697.677 413.274,701.287 
				417.146,717.194 419.352,726.254 420.833,732.334 421.898,736.711 425.432,751.226 440.35,747.594 450.404,745.146 
				444.324,720.174 438.245,695.207 432.166,670.236 426.087,645.269 420.007,620.297 413.929,595.33 438.896,589.252 
				432.816,564.28 426.736,539.308 420.833,540.746 			"/>
		</g>
	</g>
</g>
</svg>
