<?xml version="1.0" encoding="utf-8"?>
<!-- Generator: Adobe Illustrator 23.0.3, SVG Export Plug-In . SVG Version: 6.00 Build 0)  -->
<svg version="1.1" id="Layer_1" xmlns="http://www.w3.org/2000/svg" xmlns:xlink="http://www.w3.org/1999/xlink" x="0px" y="0px"
	 viewBox="0 0 1200 1200" enable-background="new 0 0 1200 1200" xml:space="preserve">
<g>
	<circle fill="#14085E" cx="561.817" cy="600" r="511.817"/>
	<linearGradient id="SVGID_1_" gradientUnits="userSpaceOnUse" x1="617.0557" y1="88.1826" x2="617.0557" y2="1111.8174">
		<stop  offset="0" style="stop-color:#FF45D8"/>
		<stop  offset="1" style="stop-color:#5031A9"/>
	</linearGradient>
	<circle fill="url(#SVGID_1_)" cx="617.056" cy="600" r="511.817"/>
	<g>
		<path fill="#FFE1F9" d="M880.667,313.836l-1.638,1.299l-19.474,15.444c4.739,4.271,9.397,8.658,13.942,13.202
			c39.002,39.002,67.961,85.352,85.683,135.911v0l9.38-7.439l12.602-9.994C959.51,405.177,924.793,354.479,880.667,313.836z"/>
		<path fill="#FFE1F9" d="M972.352,244.927c-0.709-0.708-1.435-1.393-2.148-2.097l-23.213,18.408l-15.871,12.587l-9.417,7.468
			c2.429,2.323,4.843,4.669,7.228,7.054c40.932,40.933,72.792,88.514,94.618,140.297l17.378-13.781l32.234-25.563
			C1048.35,335.601,1014.51,287.085,972.352,244.927z"/>
		<path fill="#FFE1F9" d="M300.264,774.115L300.264,774.115l-21.12,16.749c29.887,52.708,71.717,97.791,121.805,131.524
			l21.987-17.437c-21.904-14.027-42.5-30.439-61.335-49.274C337.069,831.145,316.567,803.675,300.264,774.115z"/>
		<path fill="#FFE1F9" d="M238.063,823.442L189.6,861.875v0c20.537,33.485,44.981,64.492,73.145,92.657
			c14.632,14.632,30.034,28.256,46.147,40.86l49.695-39.409c-18.435-13.461-35.972-28.422-52.42-44.871
			C279.534,884.479,256.756,855.026,238.063,823.442z"/>
		<path fill="#FFE1F9" d="M125.561,648.349l-6.893,5.398c2.287,21.459,5.949,42.652,10.963,63.525l42.28-33.111l11.658-9.129
			c-3.772-22.016-5.874-44.464-6.282-67.192L125.561,648.349z"/>
		<path fill="#FFE1F9" d="M242.383,628.973l13.676-10.709v0c-0.308-6.152-0.475-12.329-0.475-18.533
			c0-19.173,1.541-38.102,4.448-56.689l-20.295,15.893l-9.485,7.427v0c-0.939,11.003-1.448,22.126-1.448,33.368
			c0,12.955,0.651,25.759,1.895,38.392L242.383,628.973z"/>
		<path fill="#FFE1F9" d="M722.341,253.102l13.308-10.423l11.892-9.314c-22.313-7.941-45.552-13.909-69.518-17.668l-0.846,0.663
			l-29.063,22.761C673.493,241.23,698.35,245.883,722.341,253.102L722.341,253.102z"/>
		<path fill="#FFE1F9" d="M857.33,147.387c-0.006-0.003-0.012-0.006-0.017-0.009C857.318,147.38,857.324,147.384,857.33,147.387
			L857.33,147.387z"/>
		<path fill="#FFE1F9" d="M806.172,187.451l27.735-21.721l14.699-11.511c-11.66-6.049-23.572-11.678-35.75-16.829
			c-7.668-3.243-15.397-6.286-23.18-9.132l-10.214,7.999l-10.493,8.217l-37.84,29.634c21.803,5.78,43.076,13.209,63.656,22.259
			L806.172,187.451z"/>
		<path fill="#FFE1F9" d="M363.194,793.031c37.737,49.854,89.639,88.279,149.625,109.259l422.432-336.542
			c-6.699-64.679-32.599-123.703-71.858-171.215L363.194,793.031z"/>
		<path fill="#FFE1F9" d="M676.286,283.818L298.672,580.9c-0.341,6.058-0.554,12.15-0.554,18.292
			c0,17.405,1.435,34.473,4.102,51.134l440.335-346.425C721.527,294.884,699.328,288.14,676.286,283.818z"/>
	</g>
	<polygon fill="none" points="1040.927,414.863 1040.927,414.863 1081.318,382.831 1073.162,389.299 	"/>
	<g>
		<polygon fill="#14085E" points="991.472,921.273 945.954,921.273 945.954,984.129 883.098,984.129 883.098,1029.647 
			945.954,1029.647 945.954,1092.503 991.472,1092.503 991.472,1029.647 1054.328,1029.647 1054.328,984.129 991.472,984.129 		"/>
		<polygon fill="#14085E" points="1150,858.507 1149.78,821.203 1100.84,821.493 1100.55,772.553 1063.248,772.774 
			1063.537,821.713 1014.598,822.002 1014.818,859.306 1063.758,859.016 1064.048,907.956 1101.35,907.736 1101.061,858.796 		"/>
	</g>
	<g>
		<path fill="#14085E" d="M724.198,419.694H700.25v-57.587h-30.229h-34.151v26.744v30.843h-34.943v-3.478v-53.312h-24.004h-39.939
			v31.278v25.513h-32.577h-34.994V447.1v30.164h52.862v0.548v188.627v52.918h-52.862v60.409h67.572v53.952h62.009h1.934v-1.533
			v-52.419h34.943v24.708v29.233h64.38v-53.941h23.982l51.133-51.134v-34.782v-64.901l-36.828-36.827l36.828-36.733v-84.266
			l-2.998-3.014L724.198,419.694z M710.972,692.92l-27.454,26.436h-96.849v-97.94h96.85l27.453,26.437V692.92z M710.972,516.795
			v17.184l-27.247,27.029H655.22h-68.552v-83.745h97.056l27.247,27.028V516.795z"/>
		<path fill="#14085E" d="M617.056,170.608c-236.768,0-429.391,192.624-429.391,429.392c0,236.768,192.624,429.392,429.391,429.392
			S1046.447,836.767,1046.447,600C1046.447,363.233,853.823,170.608,617.056,170.608z M617.056,989.257
			c-214.981,0-389.257-174.277-389.257-389.257s174.276-389.258,389.257-389.258c214.98,0,389.257,174.277,389.257,389.258
			S832.036,989.257,617.056,989.257z"/>
		<path fill="#14085E" d="M617.056,248.863c-193.618,0-351.137,157.52-351.137,351.137c0,193.618,157.519,351.137,351.137,351.137
			S968.193,793.618,968.193,600C968.193,406.382,810.674,248.863,617.056,248.863z M617.056,928.84
			c-181.614,0-328.841-147.227-328.841-328.841s147.227-328.841,328.841-328.841S945.896,418.386,945.896,600
			S798.669,928.84,617.056,928.84z"/>
	</g>
</g>
</svg>
